<svg xmlns="http://www.w3.org/2000/svg" viewBox="0 0 60 60" fill="currentColor"><path d="M30 16.5c-7.5 0-13.5 6-13.5 13.5s6 13.5 13.5 13.5 13.5-6 13.5-13.5-6-13.5-13.5-13.5zm0 22.3c-4.8 0-8.8-3.9-8.8-8.8s3.9-8.8 8.8-8.8 8.8 3.9 8.8 8.8-4 8.8-8.8 8.8zM47.2 16c0 1.7-1.4 3.1-3.1 3.1-1.7 0-3.1-1.4-3.1-3.1 0-1.7 1.4-3.1 3.1-3.1 1.7-.1 3.1 1.3 3.1 3.1zm8.9 3.2c-.2-4.2-1.2-7.9-4.2-11-3.1-3.1-6.8-4-11-4.2-4.3-.2-17.3-.2-21.7 0-4.2.2-7.9 1.2-11 4.2s-4 6.8-4.2 11c-.2 4.3-.2 17.3 0 21.7.2 4.2 1.2 7.9 4.2 11 3.1 3.1 6.8 4 11 4.2 4.3.2 17.3.2 21.7 0 4.2-.2 7.9-1.2 11-4.2 3.1-3.1 4-6.8 4.2-11 .2-4.4.2-17.4 0-21.7zm-5.6 26.3c-.9 2.3-2.7 4.1-5 5-3.5 1.3-11.7 1-15.5 1s-12 .3-15.5-1.1c-2.3-.9-4.1-2.7-5-5-1.3-3.4-1-11.6-1-15.4s-.3-12 1-15.5c.9-2.3 2.7-4.1 5-5 3.5-1.3 11.7-1 15.5-1s12-.3 15.5 1.1c2.3.9 4.1 2.7 5 5 1.4 3.5 1.1 11.7 1.1 15.5s.2 11.9-1.1 15.4z"/></svg>
