<svg xmlns="http://www.w3.org/2000/svg" viewBox="0 0 60 60" fill="currentColor"><path d="M53.8 17.8v1.6c0 16.3-12.4 35-35 35-7 0-13.4-2-18.9-5.5 1.1.1 2 .1 3.1.1 5.7 0 11-1.9 15.3-5.3-5.4-.1-9.9-3.7-11.5-8.5.8.1 1.5.2 2.3.2 1.1 0 2.2-.2 3.2-.4-5.6-1.1-9.9-6.1-9.9-12.1v-.2c1.7 1 3.6 1.6 5.6 1.6-3.3-2.2-5.5-6-5.5-10.2 0-2.3.6-4.4 1.7-6.2 6.1 7.5 15.2 12.3 25.4 12.9-.2-.9-.3-1.9-.3-2.8 0-6.8 5.5-12.3 12.3-12.3 3.5 0 6.7 1.5 9 3.9C53.3 9 56 8 58.3 6.5c-.9 2.9-2.9 5.3-5.4 6.8 2.5-.3 4.9-1 7.1-1.9-1.7 2.5-3.8 4.6-6.2 6.4z"/></svg>
