<svg xmlns="http://www.w3.org/2000/svg" viewBox="0 0 60 60" fill="currentColor"><path d="M59.1 30c0 16.1-13 29.1-29.1 29.1-3 0-5.9-.5-8.6-1.3 1.2-1.9 3-5.1 3.6-7.6.4-1.4 1.8-6.9 1.8-6.9.9 1.8 3.7 3.3 6.7 3.3 8.8 0 15.1-8.1 15.1-18.1 0-9.6-7.8-16.8-17.9-16.8-12.5 0-19.2 8.4-19.2 17.6 0 4.3 2.3 9.6 5.9 11.3.6.3.8.1 1-.4.1-.4.6-2.4.8-3.3.1-.3 0-.6-.2-.8-1.2-1.5-2.1-4.1-2.1-6.6 0-6.4 4.9-12.6 13.1-12.6 7-.1 12 4.8 12 11.7 0 7.9-4 13.3-9.1 13.3-2.8 0-5-2.4-4.3-5.2.8-3.5 2.4-7.2 2.4-9.7 0-2.2-1.2-4.1-3.7-4.1-2.9 0-5.3 3-5.3 7.1 0 2.6.9 4.3.9 4.3S20 46.5 19.5 48.7c-.6 2.5-.4 6-.1 8.3C8.6 52.8.9 42.3.9 30 .9 13.9 13.9.9 30 .9s29.1 13 29.1 29.1z"/></svg>
