<svg viewBox="0 0 326 101" fill="none" xmlns="http://www.w3.org/2000/svg">
<path d="M325.042 84.3154C325.042 86.0801 324.712 87.5917 324.05 88.85C323.395 90.1029 322.499 91.0626 321.363 91.7291C320.233 92.3955 318.951 92.7288 317.516 92.7288C316.082 92.7288 314.797 92.3955 313.662 91.7291C312.531 91.0573 311.636 90.0949 310.974 88.842C310.319 87.5837 309.991 86.0748 309.991 84.3154C309.991 82.5506 310.319 81.0417 310.974 79.7888C311.636 78.5305 312.531 77.5681 313.662 76.9017C314.797 76.2352 316.082 75.902 317.516 75.902C318.951 75.902 320.233 76.2352 321.363 76.9017C322.499 77.5681 323.395 78.5305 324.05 79.7888C324.712 81.0417 325.042 82.5506 325.042 84.3154ZM322.059 84.3154C322.059 83.0731 321.864 82.0254 321.475 81.1723C321.091 80.3139 320.558 79.6661 319.876 79.2289C319.193 78.7864 318.407 78.5651 317.516 78.5651C316.626 78.5651 315.84 78.7864 315.157 79.2289C314.475 79.6661 313.939 80.3139 313.55 81.1723C313.166 82.0254 312.974 83.0731 312.974 84.3154C312.974 85.5576 313.166 86.608 313.55 87.4664C313.939 88.3195 314.475 88.9673 315.157 89.4098C315.84 89.847 316.626 90.0656 317.516 90.0656C318.407 90.0656 319.193 89.847 319.876 89.4098C320.558 88.9673 321.091 88.3195 321.475 87.4664C321.864 86.608 322.059 85.5576 322.059 84.3154Z" fill="currentColor"/>
<path d="M287.004 92.5048V76.1259H297.656V78.6131H289.971V83.0597H297.105V85.5469H289.971V90.0175H297.72V92.5048H287.004Z" fill="currentColor"/>
<path d="M274.047 76.1259V92.5048H271.408L263.691 81.3482H263.555V92.5048H260.588V76.1259H263.243L270.952 87.2904H271.096V76.1259H274.047Z" fill="currentColor"/>
<path d="M221.875 92.5048V76.1259H232.528V78.6131H224.842V83.0597H231.976V85.5469H224.842V90.0175H232.592V92.5048H221.875Z" fill="currentColor"/>
<path d="M198.046 76.1259L202.309 89.0179H202.477L206.732 76.1259H209.995L204.22 92.5048H200.558L194.791 76.1259H198.046Z" fill="currentColor"/>
<path d="M182.919 76.1259V92.5048H179.952V76.1259H182.919Z" fill="currentColor"/>
<path d="M154.641 78.6131V76.1259H167.709V78.6131H162.647V92.5048H159.704V78.6131H154.641Z" fill="currentColor"/>
<path d="M142.921 81.6522H139.93C139.844 81.1617 139.687 80.7271 139.458 80.3486C139.229 79.9647 138.943 79.6395 138.602 79.3729C138.261 79.1063 137.872 78.9064 137.434 78.7731C137.003 78.6345 136.536 78.5651 136.035 78.5651C135.145 78.5651 134.355 78.7891 133.668 79.2369C132.98 79.6795 132.441 80.3299 132.052 81.1883C131.663 82.0414 131.468 83.0837 131.468 84.3154C131.468 85.5683 131.663 86.624 132.052 87.4824C132.447 88.3355 132.985 88.9806 133.668 89.4178C134.355 89.8496 135.142 90.0656 136.027 90.0656C136.517 90.0656 136.976 90.0016 137.402 89.8736C137.834 89.7404 138.221 89.5457 138.562 89.2898C138.909 89.0339 139.199 88.7193 139.434 88.3461C139.674 87.9729 139.839 87.5464 139.93 87.0665L142.921 87.0825C142.809 87.8609 142.566 88.5914 142.193 89.2738C141.825 89.9563 141.343 90.5588 140.745 91.0813C140.148 91.5984 139.45 92.0036 138.65 92.2969C137.85 92.5848 136.963 92.7288 135.987 92.7288C134.547 92.7288 133.262 92.3955 132.132 91.7291C131.002 91.0626 130.111 90.1002 129.461 88.842C128.81 87.5837 128.485 86.0748 128.485 84.3154C128.485 82.5506 128.813 81.0417 129.469 79.7888C130.125 78.5305 131.018 77.5681 132.148 76.9017C133.278 76.2352 134.558 75.902 135.987 75.902C136.899 75.902 137.746 76.0299 138.53 76.2859C139.314 76.5418 140.012 76.9177 140.625 77.4135C141.239 77.904 141.742 78.5065 142.137 79.2209C142.537 79.9301 142.798 80.7405 142.921 81.6522Z" fill="currentColor"/>
<path d="M105.498 92.5048V76.1259H116.151V78.6131H108.465V83.0597H115.599V85.5469H108.465V90.0175H116.215V92.5048H105.498Z" fill="currentColor"/>
<path d="M83.0189 92.5048V76.1259H85.986V90.0175H93.1998V92.5048H83.0189Z" fill="currentColor"/>
<path d="M60.5397 92.5048V76.1259H63.5068V90.0175H70.7205V92.5048H60.5397Z" fill="currentColor"/>
<path d="M48.0114 84.3154C48.0114 86.0801 47.6808 87.5917 47.0197 88.85C46.3639 90.1029 45.4681 91.0626 44.3325 91.7291C43.2022 92.3955 41.9199 92.7288 40.4857 92.7288C39.0515 92.7288 37.7665 92.3955 36.6309 91.7291C35.5006 91.0573 34.6048 90.0949 33.9437 88.842C33.2879 87.5837 32.96 86.0748 32.96 84.3154C32.96 82.5506 33.2879 81.0417 33.9437 79.7888C34.6048 78.5305 35.5006 77.5681 36.6309 76.9017C37.7665 76.2352 39.0515 75.902 40.4857 75.902C41.9199 75.902 43.2022 76.2352 44.3325 76.9017C45.4681 77.5681 46.3639 78.5305 47.0197 79.7888C47.6808 81.0417 48.0114 82.5506 48.0114 84.3154ZM45.0283 84.3154C45.0283 83.0731 44.8337 82.0254 44.4445 81.1723C44.0606 80.3139 43.5274 79.6661 42.845 79.2289C42.1625 78.7864 41.3761 78.5651 40.4857 78.5651C39.5953 78.5651 38.8089 78.7864 38.1264 79.2289C37.444 79.6661 36.9081 80.3139 36.5189 81.1723C36.135 82.0254 35.9431 83.0731 35.9431 84.3154C35.9431 85.5576 36.135 86.608 36.5189 87.4664C36.9081 88.3195 37.444 88.9673 38.1264 89.4098C38.8089 89.847 39.5953 90.0656 40.4857 90.0656C41.3761 90.0656 42.1625 89.847 42.845 89.4098C43.5274 88.9673 44.0606 88.3195 44.4445 87.4664C44.8337 86.608 45.0283 85.5576 45.0283 84.3154Z" fill="currentColor"/>
<path d="M20.9355 81.6522H17.9445C17.8591 81.1617 17.7019 80.7271 17.4726 80.3486C17.2433 79.9647 16.9581 79.6395 16.6169 79.3729C16.2756 79.1063 15.8864 78.9064 15.4492 78.7731C15.0174 78.6345 14.5508 78.5651 14.0497 78.5651C13.1593 78.5651 12.3702 78.7891 11.6824 79.2369C10.9946 79.6795 10.4561 80.3299 10.0669 81.1883C9.67768 82.0414 9.48308 83.0837 9.48308 84.3154C9.48308 85.5683 9.67768 86.624 10.0669 87.4824C10.4614 88.3355 10.9999 88.9806 11.6824 89.4178C12.3702 89.8496 13.1566 90.0656 14.0417 90.0656C14.5322 90.0656 14.9907 90.0016 15.4172 89.8736C15.8491 89.7404 16.2356 89.5457 16.5769 89.2898C16.9234 89.0339 17.214 88.7193 17.4486 88.3461C17.6885 87.9729 17.8538 87.5464 17.9445 87.0665L20.9355 87.0825C20.8236 87.8609 20.581 88.5914 20.2077 89.2738C19.8399 89.9563 19.3573 90.5588 18.7602 91.0813C18.163 91.5984 17.4646 92.0036 16.6648 92.2969C15.8651 92.5848 14.9774 92.7288 14.0017 92.7288C12.5621 92.7288 11.2772 92.3955 10.1469 91.7291C9.01655 91.0626 8.12616 90.1002 7.4757 88.842C6.82523 87.5837 6.5 86.0748 6.5 84.3154C6.5 82.5506 6.8279 81.0417 7.4837 79.7888C8.13949 78.5305 9.03255 77.5681 10.1629 76.9017C11.2932 76.2352 12.5728 75.902 14.0017 75.902C14.9134 75.902 15.7611 76.0299 16.5449 76.2859C17.3286 76.5418 18.0271 76.9177 18.6402 77.4135C19.2534 77.904 19.7572 78.5065 20.1518 79.2209C20.5516 79.9301 20.8129 80.7405 20.9355 81.6522Z" fill="currentColor"/>
<path d="M284.95 54.5V1.40912H321.968V11.8303H297.782V22.7181H320.076V33.1652H297.782V44.0789H321.968V54.5H284.95Z" fill="currentColor"/>
<path d="M261.895 18.7518C261.601 17.663 261.169 16.7038 260.599 15.8743C260.028 15.0275 259.329 14.3102 258.499 13.7226C257.669 13.1351 256.719 12.6944 255.647 12.4006C254.576 12.0895 253.401 11.9339 252.122 11.9339C249.547 11.9339 247.317 12.5561 245.434 13.8004C243.567 15.0447 242.124 16.8594 241.104 19.2443C240.085 21.612 239.575 24.4895 239.575 27.8768C239.575 31.2814 240.067 34.1848 241.053 36.587C242.038 38.9892 243.463 40.8211 245.33 42.0827C247.196 43.3443 249.46 43.9751 252.122 43.9751C254.472 43.9751 256.46 43.5949 258.084 42.8345C259.726 42.0568 260.97 40.9594 261.817 39.5423C262.664 38.1251 263.087 36.4574 263.087 34.5391L265.472 34.8242H252.562V25.4659H275.453V32.4911C275.453 37.2437 274.442 41.3137 272.42 44.701C270.415 48.0883 267.65 50.6893 264.124 52.5039C260.616 54.3185 256.581 55.2258 252.018 55.2258C246.954 55.2258 242.504 54.1284 238.668 51.9336C234.831 49.7387 231.841 46.6107 229.698 42.5494C227.555 38.4708 226.484 33.6317 226.484 28.0323C226.484 23.6772 227.132 19.8146 228.428 16.4446C229.724 13.0573 231.53 10.1884 233.846 7.83806C236.179 5.48768 238.875 3.70761 241.934 2.49786C245.01 1.2881 248.32 0.683228 251.863 0.683228C254.939 0.683228 257.799 1.12392 260.443 2.00532C263.105 2.88671 265.455 4.13103 267.494 5.73827C269.551 7.34552 271.219 9.2552 272.497 11.4673C273.776 13.6794 274.571 16.1076 274.882 18.7518H261.895Z" fill="currentColor"/>
<path d="M182.781 54.5H168.989L186.902 1.40912H203.986L221.899 54.5H208.108L195.639 14.7855H195.224L182.781 54.5ZM180.94 33.6059H209.767V43.353H180.94V33.6059Z" fill="currentColor"/>
<path d="M127.088 54.5V1.40912H139.92V44.0789H162.007V54.5H127.088Z" fill="currentColor"/>
<path d="M83.5924 54.5V1.40912H96.4244V44.0789H118.511V54.5H83.5924Z" fill="currentColor"/>
<path d="M73.6026 1.40912V54.5H60.7706V1.40912H73.6026Z" fill="currentColor"/>
<path d="M14.5724 1.40912L26.4453 40.2941H26.886L38.7589 1.40912H53.1204L35.2074 54.5H18.1239L0.210938 1.40912H14.5724Z" fill="currentColor"/>
<path d="M6.5 99H325.042V101H6.5V99Z" fill="currentColor"/>
<path d="M6.5 67.3595H325.042V69.3595H6.5V67.3595Z" fill="currentColor"/>
</svg>
