<svg viewBox="0 0 326 102" fill="none" xmlns="http://www.w3.org/2000/svg">
<path d="M285.367 54.7588V1.66791H322.386V12.0891H298.199V22.9769H320.493V33.4239H298.199V44.3377H322.386V54.7588H285.367Z" fill="currentColor"/>
<path d="M262.312 19.0106C262.018 17.9218 261.586 16.9626 261.016 16.1331C260.446 15.2862 259.746 14.569 258.916 13.9814C258.087 13.3938 257.136 12.9531 256.064 12.6593C254.993 12.3483 253.818 12.1927 252.539 12.1927C249.964 12.1927 247.734 12.8149 245.851 14.0592C243.984 15.3035 242.541 17.1182 241.522 19.5031C240.502 21.8708 239.992 24.7482 239.992 28.1356C239.992 31.5401 240.485 34.4436 241.47 36.8458C242.455 39.248 243.881 41.0799 245.747 42.3415C247.614 43.6031 249.877 44.2339 252.539 44.2339C254.889 44.2339 256.877 43.8537 258.501 43.0933C260.143 42.3156 261.387 41.2182 262.234 39.801C263.081 38.3839 263.504 36.7162 263.504 34.7978L265.889 35.083H252.98V25.7247H275.87V32.7499C275.87 37.5025 274.859 41.5725 272.837 44.9598C270.832 48.3471 268.067 50.9481 264.541 52.7627C261.033 54.5773 256.998 55.4846 252.435 55.4846C247.372 55.4846 242.921 54.3872 239.085 52.1924C235.248 49.9975 232.258 46.8695 230.115 42.8081C227.972 38.7295 226.901 33.8905 226.901 28.2911C226.901 23.936 227.549 20.0734 228.845 16.7034C230.141 13.3161 231.947 10.4472 234.263 8.09685C236.596 5.74647 239.292 3.9664 242.351 2.75665C245.427 1.54689 248.737 0.942017 252.28 0.942017C255.356 0.942017 258.216 1.38271 260.86 2.2641C263.522 3.1455 265.872 4.38982 267.911 5.99706C269.968 7.6043 271.636 9.51399 272.915 11.7261C274.193 13.9382 274.988 16.3664 275.3 19.0106H262.312Z" fill="currentColor"/>
<path d="M183.198 54.7588H169.406L187.319 1.66791H204.403L222.316 54.7588H208.525L196.056 15.0443H195.641L183.198 54.7588ZM181.357 33.8646H210.184V43.6118H181.357V33.8646Z" fill="currentColor"/>
<path d="M127.505 54.7588V1.66791H140.337V44.3377H162.424V54.7588H127.505Z" fill="currentColor"/>
<path d="M84.0095 54.7588V1.66791H96.8415V44.3377H118.928V54.7588H84.0095Z" fill="currentColor"/>
<path d="M74.0197 1.66791V54.7588H61.1877V1.66791H74.0197Z" fill="currentColor"/>
<path d="M14.9896 1.66791L26.8624 40.5528H27.3031L39.176 1.66791H53.5375L35.6245 54.7588H18.541L0.628052 1.66791H14.9896Z" fill="currentColor"/>
<path d="M6.91711 99.2588H325.459V101.259H6.91711V99.2588Z" fill="currentColor"/>
<path d="M6.91711 67.6183H325.459V69.6183H6.91711V67.6183Z" fill="currentColor"/>
<path d="M315.94 82.6855H313.018C312.935 82.2064 312.781 81.7819 312.557 81.4121C312.333 81.0371 312.055 80.7194 311.721 80.459C311.388 80.1986 311.008 80.0033 310.581 79.873C310.159 79.7376 309.703 79.6699 309.214 79.6699C308.344 79.6699 307.573 79.8887 306.901 80.3262C306.229 80.7585 305.703 81.3939 305.323 82.2324C304.943 83.0658 304.753 84.084 304.753 85.2871C304.753 86.5111 304.943 87.5423 305.323 88.3809C305.708 89.2142 306.234 89.8444 306.901 90.2715C307.573 90.6934 308.341 90.9043 309.206 90.9043C309.685 90.9043 310.133 90.8418 310.549 90.7168C310.971 90.5866 311.349 90.3965 311.682 90.1465C312.021 89.8965 312.305 89.5892 312.534 89.2246C312.768 88.86 312.93 88.4434 313.018 87.9746L315.94 87.9902C315.831 88.7507 315.594 89.4642 315.229 90.1309C314.87 90.7975 314.398 91.3861 313.815 91.8965C313.232 92.4017 312.549 92.7975 311.768 93.084C310.987 93.3652 310.12 93.5059 309.167 93.5059C307.76 93.5059 306.505 93.1803 305.401 92.5293C304.297 91.8783 303.427 90.9382 302.792 89.709C302.156 88.4798 301.839 87.0059 301.839 85.2871C301.839 83.5632 302.159 82.0892 302.799 80.8652C303.44 79.6361 304.313 78.696 305.417 78.0449C306.521 77.3939 307.771 77.0684 309.167 77.0684C310.057 77.0684 310.885 77.1934 311.651 77.4434C312.417 77.6934 313.099 78.0605 313.698 78.5449C314.297 79.0241 314.789 79.6126 315.174 80.3105C315.565 81.0033 315.82 81.7949 315.94 82.6855Z" fill="currentColor"/>
<path d="M292.087 77.2871V93.2871H289.508L281.969 82.3887H281.837V93.2871H278.938V77.2871H281.532L289.063 88.1934H289.204V77.2871H292.087Z" fill="currentColor"/>
<path d="M268.799 77.2871V93.2871H265.901V77.2871H268.799Z" fill="currentColor"/>
<path d="M223.624 93.2871V77.2871H234.03V79.7168H226.522V84.0605H233.491V86.4902H226.522V90.8574H234.092V93.2871H223.624Z" fill="currentColor"/>
<path d="M199.844 77.2871L204.008 89.8809H204.173L208.329 77.2871H211.516L205.876 93.2871H202.298L196.665 77.2871H199.844Z" fill="currentColor"/>
<path d="M184.565 77.2871V93.2871H181.667V77.2871H184.565Z" fill="currentColor"/>
<path d="M156.44 79.7168V77.2871H169.206V79.7168H164.26V93.2871H161.385V79.7168H156.44Z" fill="currentColor"/>
<path d="M144.489 82.6855H141.567C141.484 82.2064 141.33 81.7819 141.106 81.4121C140.882 81.0371 140.604 80.7194 140.27 80.459C139.937 80.1986 139.557 80.0033 139.13 79.873C138.708 79.7376 138.252 79.6699 137.762 79.6699C136.893 79.6699 136.122 79.8887 135.45 80.3262C134.778 80.7585 134.252 81.3939 133.872 82.2324C133.492 83.0658 133.301 84.084 133.301 85.2871C133.301 86.5111 133.492 87.5423 133.872 88.3809C134.257 89.2142 134.783 89.8444 135.45 90.2715C136.122 90.6934 136.89 90.9043 137.755 90.9043C138.234 90.9043 138.682 90.8418 139.098 90.7168C139.52 90.5866 139.898 90.3965 140.231 90.1465C140.57 89.8965 140.854 89.5892 141.083 89.2246C141.317 88.86 141.479 88.4434 141.567 87.9746L144.489 87.9902C144.38 88.7507 144.143 89.4642 143.778 90.1309C143.419 90.7975 142.947 91.3861 142.364 91.8965C141.781 92.4017 141.098 92.7975 140.317 93.084C139.536 93.3652 138.669 93.5059 137.716 93.5059C136.309 93.5059 135.054 93.1803 133.95 92.5293C132.846 91.8783 131.976 90.9382 131.341 89.709C130.705 88.4798 130.387 87.0059 130.387 85.2871C130.387 83.5632 130.708 82.0892 131.348 80.8652C131.989 79.6361 132.861 78.696 133.966 78.0449C135.07 77.3939 136.32 77.0684 137.716 77.0684C138.606 77.0684 139.434 77.1934 140.2 77.4434C140.966 77.6934 141.648 78.0605 142.247 78.5449C142.846 79.0241 143.338 79.6126 143.723 80.3105C144.114 81.0033 144.369 81.7949 144.489 82.6855Z" fill="currentColor"/>
<path d="M107.43 93.2871V77.2871H117.837V79.7168H110.329V84.0605H117.298V86.4902H110.329V90.8574H117.899V93.2871H107.43Z" fill="currentColor"/>
<path d="M84.9694 93.2871V77.2871H87.8679V90.8574H94.9147V93.2871H84.9694Z" fill="currentColor"/>
<path d="M62.5085 93.2871V77.2871H65.4069V90.8574H72.4538V93.2871H62.5085Z" fill="currentColor"/>
<path d="M49.7682 85.2871C49.7682 87.0111 49.4453 88.4876 48.7995 89.7168C48.1589 90.9408 47.2839 91.8783 46.1745 92.5293C45.0703 93.1803 43.8177 93.5059 42.4167 93.5059C41.0156 93.5059 39.7604 93.1803 38.6511 92.5293C37.5469 91.873 36.6719 90.9329 36.0261 89.709C35.3854 88.4798 35.0651 87.0059 35.0651 85.2871C35.0651 83.5632 35.3854 82.0892 36.0261 80.8652C36.6719 79.6361 37.5469 78.696 38.6511 78.0449C39.7604 77.3939 41.0156 77.0684 42.4167 77.0684C43.8177 77.0684 45.0703 77.3939 46.1745 78.0449C47.2839 78.696 48.1589 79.6361 48.7995 80.8652C49.4453 82.0892 49.7682 83.5632 49.7682 85.2871ZM46.8542 85.2871C46.8542 84.0736 46.6641 83.0501 46.2839 82.2168C45.9089 81.3783 45.388 80.7454 44.7214 80.3184C44.0547 79.8861 43.2865 79.6699 42.4167 79.6699C41.5469 79.6699 40.7787 79.8861 40.112 80.3184C39.4453 80.7454 38.9219 81.3783 38.5417 82.2168C38.1667 83.0501 37.9792 84.0736 37.9792 85.2871C37.9792 86.5007 38.1667 87.5267 38.5417 88.3652C38.9219 89.1986 39.4453 89.8314 40.112 90.2637C40.7787 90.6908 41.5469 90.9043 42.4167 90.9043C43.2865 90.9043 44.0547 90.6908 44.7214 90.2637C45.388 89.8314 45.9089 89.1986 46.2839 88.3652C46.6641 87.5267 46.8542 86.5007 46.8542 85.2871Z" fill="currentColor"/>
<path d="M22.8171 82.6855H19.8952C19.8119 82.2064 19.6582 81.7819 19.4343 81.4121C19.2103 81.0371 18.9317 80.7194 18.5983 80.459C18.265 80.1986 17.8848 80.0033 17.4577 79.873C17.0358 79.7376 16.5801 79.6699 16.0905 79.6699C15.2207 79.6699 14.4499 79.8887 13.778 80.3262C13.1061 80.7585 12.5801 81.3939 12.1999 82.2324C11.8197 83.0658 11.6296 84.084 11.6296 85.2871C11.6296 86.5111 11.8197 87.5423 12.1999 88.3809C12.5853 89.2142 13.1113 89.8444 13.778 90.2715C14.4499 90.6934 15.2181 90.9043 16.0827 90.9043C16.5619 90.9043 17.0098 90.8418 17.4265 90.7168C17.8483 90.5866 18.2259 90.3965 18.5593 90.1465C18.8978 89.8965 19.1817 89.5892 19.4108 89.2246C19.6452 88.86 19.8067 88.4434 19.8952 87.9746L22.8171 87.9902C22.7077 88.7507 22.4707 89.4642 22.1061 90.1309C21.7468 90.7975 21.2754 91.3861 20.6921 91.8965C20.1087 92.4017 19.4265 92.7975 18.6452 93.084C17.864 93.3652 16.9968 93.5059 16.0436 93.5059C14.6374 93.5059 13.3822 93.1803 12.278 92.5293C11.1738 91.8783 10.3041 90.9382 9.66864 89.709C9.03322 88.4798 8.71552 87.0059 8.71552 85.2871C8.71552 83.5632 9.03583 82.0892 9.67645 80.8652C10.3171 79.6361 11.1895 78.696 12.2936 78.0449C13.3978 77.3939 14.6478 77.0684 16.0436 77.0684C16.9343 77.0684 17.7624 77.1934 18.528 77.4434C19.2936 77.6934 19.9759 78.0605 20.5749 78.5449C21.1738 79.0241 21.666 79.6126 22.0515 80.3105C22.4421 81.0033 22.6973 81.7949 22.8171 82.6855Z" fill="currentColor"/>
<path d="M322.313 93.459C321.839 93.459 321.433 93.2923 321.094 92.959C320.756 92.6257 320.589 92.2194 320.594 91.7402C320.589 91.2715 320.756 90.8704 321.094 90.5371C321.433 90.2038 321.839 90.0371 322.313 90.0371C322.772 90.0371 323.17 90.2038 323.509 90.5371C323.852 90.8704 324.027 91.2715 324.032 91.7402C324.027 92.0579 323.943 92.347 323.782 92.6074C323.626 92.8678 323.417 93.0762 323.157 93.2324C322.902 93.3835 322.62 93.459 322.313 93.459Z" fill="currentColor"/>
</svg>
