<svg viewBox="0 0 230 360" fill="none" xmlns="http://www.w3.org/2000/svg">
  <path d="M41.0716 98.1819H57.5003C59.7684 98.1819 61.8221 97.2661 63.3085 95.7853C64.7949 94.3046 65.7145 92.2593 65.7145 89.9999V73.6361C65.7145 71.3767 64.7952 69.3314 63.3085 67.8506C61.8218 66.3698 59.7684 65.4541 57.5003 65.4541H41.0716C38.8033 65.4541 36.7496 66.3698 35.2632 67.8506C33.7768 69.3314 32.8574 71.3767 32.8574 73.6361V89.9999C32.8574 92.2593 33.7768 94.3046 35.2632 95.7853C36.7496 97.2661 38.8033 98.1819 41.0716 98.1819V98.1819Z" fill="#00AF89"/>
  <path d="M106.786 32.7272H123.214C125.482 32.7272 127.536 31.8115 129.022 30.3307C130.509 28.8502 131.428 26.8046 131.428 24.5452V8.18176C131.428 5.92236 130.509 3.87705 129.022 2.39627C127.536 0.91575 125.482 -0.000244141 123.214 -0.000244141H106.786C104.517 -0.000244141 102.463 0.915491 100.977 2.39627C99.4907 3.87705 98.5713 5.92236 98.5713 8.18176V24.5455C98.5713 26.8049 99.4907 28.8502 100.977 30.331C102.463 31.8118 104.517 32.7275 106.786 32.7275V32.7272Z" fill="#00AF89"/>
  <path d="M221.786 229.091H205.338C203.096 229.088 201.059 228.185 199.577 226.722C198.094 225.259 197.167 223.237 197.143 220.996V171.818C197.143 169.559 196.224 167.514 194.737 166.033C193.25 164.552 191.197 163.636 188.929 163.636H172.5C170.232 163.636 168.178 164.552 166.692 166.033C165.205 167.514 164.286 169.559 164.286 171.818V188.268C164.286 188.254 164.283 188.24 164.281 188.226C164.279 188.212 164.277 188.197 164.277 188.183C164.277 190.447 163.36 192.492 161.874 193.971C160.389 195.451 158.335 196.365 156.062 196.365H139.634C137.375 196.365 135.321 197.278 133.833 198.758C132.344 200.237 131.42 202.283 131.42 204.546V220.91C131.42 223.172 130.504 225.216 129.02 226.695C127.537 228.174 125.485 229.088 123.215 229.091H106.786C106.786 229.091 106.784 229.091 106.783 229.091C106.782 229.091 106.781 229.091 106.78 229.091C104.523 229.09 102.471 228.176 100.983 226.697C99.4951 225.217 98.5713 223.173 98.5713 220.91V171.818C98.5713 169.555 99.4954 167.509 100.984 166.029C102.473 164.55 104.527 163.636 106.786 163.636H123.214C125.482 163.636 127.536 162.721 129.022 161.24C130.509 159.759 131.428 157.714 131.428 155.454V106.363C131.428 106.356 131.427 106.349 131.426 106.342C131.425 106.336 131.424 106.329 131.424 106.321C131.436 104.068 132.363 102.033 133.849 100.561C135.336 99.0898 137.383 98.1816 139.634 98.1816H156.071C158.339 98.1816 160.393 97.2659 161.88 95.7851C163.366 94.3043 164.286 92.259 164.286 89.9996V73.6359C164.286 71.3765 163.366 69.3312 161.88 67.8504C160.393 66.3696 158.339 65.4539 156.071 65.4539H139.643C137.374 65.4539 135.321 66.3696 133.834 67.8504C132.348 69.3312 131.428 71.3765 131.428 73.6359V90.0851C131.428 90.0704 131.426 90.0564 131.424 90.0424C131.422 90.0284 131.42 90.0141 131.42 89.9996C131.42 92.2634 130.503 94.3087 129.017 95.7882C127.531 97.2677 125.478 98.1813 123.205 98.1813H106.785C104.517 98.1813 102.463 99.0971 100.977 100.578C99.4904 102.059 98.5711 104.104 98.5711 106.363V122.727C98.5711 124.991 97.654 127.036 96.1684 128.516C94.6828 129.995 92.6294 130.909 90.3566 130.909H73.9279C71.6595 130.909 69.6059 131.825 68.1195 133.305C66.6331 134.786 65.7137 136.831 65.7137 139.091V155.455C65.7137 157.718 64.7967 159.764 63.311 161.243C61.8254 162.723 59.772 163.636 57.4992 163.636H41.0705C38.8022 163.636 36.7485 164.552 35.2621 166.033C33.7757 167.514 32.8563 169.559 32.8563 171.818V188.183C32.8563 190.445 31.9406 192.489 30.4571 193.968C28.9735 195.447 26.9225 196.361 24.652 196.364H8.21421C5.94584 196.364 3.89216 197.28 2.40577 198.76C0.919369 200.241 0 202.286 0 204.546V286.364C0 288.623 0.919369 290.669 2.40577 292.15C3.89216 293.63 5.94584 294.546 8.21421 294.546H24.6515C26.9222 294.549 28.9738 295.463 30.4573 296.942C31.9409 298.421 32.8571 300.465 32.8571 302.727C32.8571 302.67 32.8644 302.614 32.8722 302.559C32.88 302.504 32.8886 302.449 32.8912 302.392C32.8886 302.449 32.88 302.504 32.8722 302.56C32.8644 302.615 32.8571 302.67 32.8571 302.728V319.092C32.8571 321.351 33.7765 323.396 35.2629 324.877C36.7493 326.358 38.803 327.274 41.0713 327.274H57.5C57.5552 327.274 57.6085 327.267 57.6616 327.259C57.7147 327.252 57.768 327.243 57.8227 327.241H57.832C57.7771 327.243 57.7241 327.252 57.6707 327.259C57.6174 327.267 57.5638 327.274 57.5078 327.274C59.7736 327.274 61.8202 328.182 63.3035 329.654C64.7868 331.125 65.7064 333.161 65.7181 335.414C65.7181 335.421 65.7171 335.428 65.716 335.435C65.715 335.442 65.7139 335.449 65.7139 335.456V351.819C65.7139 354.079 66.6333 356.124 68.1197 357.605C69.6061 359.086 71.6598 360.002 73.9282 360.002H156.071C158.339 360.002 160.393 359.086 161.879 357.605C163.366 356.124 164.285 354.079 164.285 351.819V335.456C164.285 335.449 164.284 335.442 164.283 335.435C164.282 335.428 164.281 335.421 164.281 335.414C164.293 333.16 165.219 331.125 166.706 329.654C168.193 328.182 170.239 327.274 172.491 327.274H188.928C191.196 327.274 193.25 326.358 194.736 324.878C196.223 323.397 197.142 321.351 197.142 319.092V302.728C197.142 302.721 197.141 302.714 197.14 302.707C197.139 302.701 197.138 302.694 197.138 302.686C197.15 300.433 198.077 298.398 199.563 296.926C201.05 295.455 203.097 294.547 205.348 294.547H221.785C224.053 294.547 226.107 293.631 227.593 292.15C229.08 290.669 229.999 288.624 229.999 286.365V237.274C229.999 235.014 229.08 232.969 227.593 231.488C226.107 230.007 224.053 229.092 221.785 229.092L221.786 229.091ZM73.9232 196.363C73.9232 196.363 73.925 196.363 73.9258 196.363C73.9266 196.363 73.9274 196.363 73.9284 196.363C73.9274 196.363 73.9266 196.363 73.9258 196.363C73.925 196.363 73.9243 196.363 73.9232 196.363V196.362V196.363ZM164.281 286.403C164.281 286.396 164.28 286.39 164.279 286.383C164.278 286.377 164.277 286.37 164.277 286.364C164.277 288.627 163.36 290.673 161.874 292.152C160.389 293.632 158.335 294.545 156.062 294.545H139.643C137.374 294.545 135.321 295.461 133.834 296.942C132.348 298.423 131.428 300.468 131.428 302.727L131.426 310.929L131.424 319.13C131.424 319.123 131.423 319.117 131.422 319.11C131.421 319.104 131.42 319.097 131.42 319.091C131.42 321.355 130.503 323.4 129.017 324.879C127.531 326.359 125.478 327.272 123.205 327.272H73.9368C71.678 327.272 69.6243 326.359 68.1356 324.879C66.6469 323.4 65.7225 321.354 65.7225 319.091C65.7225 319.104 65.7207 319.117 65.7189 319.131C65.7171 319.144 65.715 319.157 65.7147 319.17V302.727C65.7147 300.468 64.7954 298.422 63.3087 296.941C61.8221 295.461 59.7686 294.545 57.5005 294.545H41.064C41.0653 294.545 41.0666 294.545 41.0679 294.544C41.0692 294.544 41.0705 294.544 41.0718 294.544C38.8131 294.544 36.7594 293.63 35.2707 292.151C33.7819 290.671 32.8576 288.626 32.8576 286.362V204.546C32.8576 202.282 33.7817 200.237 35.2707 198.757C36.7597 197.278 38.8131 196.364 41.0718 196.364C41.0708 196.364 41.07 196.364 41.0692 196.364C41.0685 196.364 41.0679 196.364 41.0672 196.364H57.5052C57.5052 196.364 57.5039 196.364 57.5031 196.364C57.5023 196.364 57.5016 196.364 57.5005 196.364C59.7733 196.364 61.827 197.278 63.3124 198.757C64.7977 200.237 65.715 202.282 65.715 204.546V220.909C65.715 223.168 66.6344 225.213 68.1208 226.694C69.6072 228.175 71.6608 229.091 73.9292 229.091H90.3678C90.3662 229.091 90.3644 229.091 90.3628 229.091C90.3613 229.092 90.3595 229.092 90.3579 229.092C92.6307 229.092 94.6844 230.005 96.1697 231.485C97.6551 232.964 98.5724 235.01 98.5724 237.273V253.636C98.5724 255.895 99.4917 257.941 100.978 259.421C102.465 260.902 104.518 261.818 106.787 261.818L131.425 261.819L156.064 261.819C156.064 261.819 156.065 261.819 156.066 261.819C156.067 261.819 156.068 261.819 156.069 261.819C158.34 261.82 160.392 262.734 161.877 264.214C163.361 265.693 164.278 267.738 164.278 270.001C164.278 269.994 164.278 269.987 164.279 269.981C164.28 269.974 164.281 269.968 164.282 269.961V286.404L164.281 286.403Z" fill="#00AF89"/>
</svg>
